<svg xmlns="http://www.w3.org/2000/svg" width="522" height="522" viewBox="0 0 522 522">
    <g id="kucoin-shares" transform="translate(70 52.001)">
        <path id="Path_1" data-name="Path 1" d="M322.033,254.722l-78.391,78.025L118.5,208.951l124.9-123.6,78.631,78.263a35.561,35.561,0,0,0,50.17-50.411L268.844,10.331a35.619,35.619,0,0,0-50.291.12c-.057.057-2.522,2.1-3.623,3.2L71.121,155.914V70.884A35.56,35.56,0,0,0,0,70.884V347.221a35.56,35.56,0,0,0,71.121,0V262L214.93,404.267c.621.617,3.025,3.02,3.623,3.623a35.616,35.616,0,0,0,50.291.12L372.2,305.133a35.561,35.561,0,0,0-50.17-50.411Z" transform="translate(0 0)" fill="#53aa90" />
        <circle id="Ellipse_1" data-name="Ellipse 1" cx="35.862" cy="35.862" r="35.862" transform="translate(208.108 173.34)" fill="#53aa90" />
    </g>
</svg>